<?xml version="1.0" encoding="utf-8"?>
<!-- Generator: Adobe Illustrator 14.0.0, SVG Export Plug-In . SVG Version: 6.00 Build 43363)  -->
<!DOCTYPE svg PUBLIC "-//W3C//DTD SVG 1.1//EN" "http://www.w3.org/Graphics/SVG/1.1/DTD/svg11.dtd">
<svg version="1.1" id="Ebene_1" xmlns="http://www.w3.org/2000/svg" xmlns:xlink="http://www.w3.org/1999/xlink" x="0px" y="0px"
	 width="841.89px" height="595.28px" viewBox="0 0 841.89 595.28" enable-background="new 0 0 841.89 595.28" xml:space="preserve">
<g>
	<g>
		<defs>
			<rect id="SVGID_1_" x="332.588" y="245.427" width="176.714" height="104.427"/>
		</defs>
		<clipPath id="SVGID_2_">
			<use xlink:href="#SVGID_1_"  overflow="visible"/>
		</clipPath>
		<path clip-path="url(#SVGID_2_)" fill="#394794" d="M478.509,297.635c0,11.776-9.546,21.322-21.322,21.322
			s-21.321-9.546-21.321-21.322s9.545-21.322,21.321-21.322S478.509,285.858,478.509,297.635"/>
		<path clip-path="url(#SVGID_2_)" fill="#6D6EAB" d="M434.689,275.139c3.982-3.981,9.02-6.873,14.645-8.304l-4.682-3.566
			c-10.107,3.688-18.118,11.692-21.826,21.781l3.562,4.726C427.819,284.154,430.711,279.12,434.689,275.139 M444.846,332.071
			l4.74-3.574c-5.728-1.404-10.854-4.326-14.896-8.367c-3.85-3.852-6.684-8.688-8.16-14.09l-3.533,4.637
			C426.801,320.613,434.801,328.47,444.846,332.071 M479.682,320.13c-3.815,3.814-8.598,6.632-13.936,8.12l4.625,3.525
			c9.672-3.75,17.354-11.484,21.032-21.2l-3.524-4.675C486.412,311.357,483.565,316.245,479.682,320.13 M491.506,284.925
			c-3.59-9.666-11.129-17.41-20.676-21.25l-4.6,3.468c5.145,1.522,9.75,4.296,13.451,7.996c3.939,3.94,6.812,8.914,8.258,14.466
			L491.506,284.925z"/>
		<path clip-path="url(#SVGID_2_)" fill="#9C9AC7" d="M424.871,265.32c3.357-3.356,7.237-6.18,11.497-8.365l-4.185-3.188
			c-7.816,4.464-14.311,10.962-18.797,18.762l3.166,4.199C418.731,272.502,421.539,268.654,424.871,265.32 M432.27,341.551
			l4.216-3.178c-4.306-2.192-8.226-5.038-11.614-8.425c-3.238-3.241-5.984-6.967-8.138-11.053l-3.171,4.161
			C418.059,330.745,424.52,337.146,432.27,341.551 M489.5,329.948c-3.207,3.208-6.892,5.932-10.931,8.075l4.163,3.172
			c7.469-4.394,13.709-10.653,18.081-18.138l-3.16-4.192C495.498,322.963,492.747,326.7,489.5,329.948 M500.983,272.487
			c-4.289-7.452-10.423-13.707-17.782-18.139l-4.165,3.14c3.856,2.104,7.38,4.748,10.464,7.832c3.318,3.32,6.117,7.151,8.293,11.354
			L500.983,272.487z"/>
		<path clip-path="url(#SVGID_2_)" fill="#CDCBE3" d="M405.246,333.97c4.348,6.199,9.774,11.585,16.01,15.884l4.062-3.062
			c-3.451-2.243-6.662-4.827-9.562-7.728c-2.776-2.776-5.267-5.836-7.442-9.12L405.246,333.97z M415.756,256.204
			c2.889-2.889,6.086-5.463,9.522-7.7l-4.038-3.077c-6.304,4.349-11.775,9.813-16.145,16.101l3.054,4.052
			C410.364,262.199,412.908,259.052,415.756,256.204 M498.617,339.064c-2.746,2.745-5.767,5.212-9.009,7.371l4.009,3.056
			c6.002-4.228,11.242-9.461,15.463-15.469l-3.045-4.039C503.864,333.254,501.383,336.299,498.617,339.064 M509.301,261.572
			c-4.146-5.975-9.284-11.208-15.189-15.448l-4.02,3.03c3.06,2.08,5.916,4.441,8.525,7.05c2.852,2.854,5.4,6.006,7.617,9.393
			L509.301,261.572z"/>
		<path clip-path="url(#SVGID_2_)" fill="#FFFFFF" d="M465.057,306.123c-0.844,0.345-1.936,0.681-3.281,1.005
			c-1.344,0.326-2.672,0.49-3.978,0.49c-3.016,0-5.421-0.869-7.211-2.611c-1.793-1.738-2.688-4.206-2.688-7.403
			c0-3.009,0.896-5.418,2.688-7.232c1.79-1.812,4.242-2.72,7.354-2.72c1.605,0,2.914,0.153,3.918,0.458
			c1.007,0.305,2.045,0.719,3.121,1.243v4.499h-0.439c-0.232-0.181-0.566-0.437-1-0.767c-0.434-0.331-0.855-0.612-1.268-0.845
			c-0.483-0.276-1.039-0.511-1.672-0.709c-0.631-0.197-1.299-0.297-2.004-0.297c-0.824,0-1.578,0.129-2.254,0.387
			c-0.681,0.258-1.287,0.653-1.82,1.187c-0.506,0.516-0.908,1.168-1.203,1.961c-0.299,0.789-0.446,1.708-0.446,2.758
			c0,2.243,0.563,3.898,1.69,4.962c1.125,1.066,2.662,1.598,4.615,1.598c0.17,0,0.373-0.004,0.604-0.012
			c0.231-0.009,0.433-0.021,0.606-0.039v-3.764h-3.727v-3.596h8.393V306.123z"/>
	</g>
	<polygon fill="#394794" points="353.084,307.743 348.071,307.743 348.071,294.442 344.419,303.025 340.982,303.025 
		337.332,294.442 337.332,307.743 332.588,307.743 332.588,287.677 338.396,287.677 342.842,297.58 347.275,287.677 
		353.084,287.677 	"/>
	<polygon fill="#394794" points="374,287.676 367.1,307.743 361.845,307.743 354.945,287.676 360.174,287.676 364.541,301.274 
		368.906,287.676 	"/>
	<g>
		<defs>
			<rect id="SVGID_3_" x="332.588" y="245.427" width="176.714" height="104.427"/>
		</defs>
		<clipPath id="SVGID_4_">
			<use xlink:href="#SVGID_3_"  overflow="visible"/>
		</clipPath>
		<path clip-path="url(#SVGID_4_)" fill="#394794" d="M386.127,294.132c0-0.565-0.135-1.054-0.404-1.464
			c-0.27-0.407-0.592-0.688-0.971-0.841c-0.475-0.207-0.932-0.326-1.367-0.356c-0.437-0.032-1.027-0.046-1.772-0.046h-0.713v6.009
			h0.353c0.473,0,0.922-0.005,1.344-0.015s0.791-0.039,1.104-0.094c0.271-0.044,0.556-0.134,0.856-0.262
			c0.302-0.132,0.533-0.277,0.695-0.439c0.34-0.333,0.572-0.677,0.694-1.038C386.065,295.228,386.127,294.742,386.127,294.132
			 M391.301,294.012c0,0.933-0.147,1.822-0.442,2.667c-0.298,0.844-0.724,1.549-1.282,2.117c-0.34,0.349-0.715,0.672-1.125,0.97
			c-0.408,0.295-0.859,0.548-1.355,0.755c-0.491,0.206-1.03,0.368-1.609,0.485c-0.579,0.116-1.229,0.176-1.948,0.176h-2.639v6.562
			h-5.039v-20.066h7.786c1.16,0,2.158,0.104,3,0.315c0.839,0.211,1.601,0.546,2.283,1.006c0.754,0.501,1.341,1.175,1.752,2.014
			C391.096,291.853,391.301,292.852,391.301,294.012"/>
	</g>
	<path fill="#394794" d="M409.44,299.456v-6.834l-5.08,6.834H409.44z M417.014,303.067h-2.709v4.73h-4.864v-4.73h-8.825v-3.748
		l8.664-11.643h5.025v11.779h2.709V303.067z"/>
</g>
</svg>
